<?xml version="1.0" encoding="UTF-8" standalone="no"?>
<svg viewBox="0 0 64 64" xmlns="http://www.w3.org/2000/svg">
  <!-- Innovative Snowflake/Cold Design -->
  <defs>
    <linearGradient id="blueGradient" x1="0%" y1="0%" x2="100%" y2="100%">
      <stop offset="0%" style="stop-color:#0066cc;stop-opacity:0.8"/>
      <stop offset="100%" style="stop-color:#00a1ff;stop-opacity:1"/>
    </linearGradient>
  </defs>
  
  <!-- Hexagonal shape instead of circle -->
  <polygon points="32,4 57,19 57,49 32,64 7,49 7,19" 
           fill="white" 
           stroke="url(#blueGradient)" 
           stroke-width="2"/>
  
  <!-- Modern snowflake design -->
  <!-- Main axes with tapered ends -->
  <path d="M32,14 L32,54" stroke="#0066cc" stroke-width="3" stroke-linecap="round"/>
  <path d="M14,34 L54,34" stroke="#0066cc" stroke-width="3" stroke-linecap="round"/>
  
  <!-- Diagonal axes with style -->
  <path d="M19,19 L49,49" stroke="#0066cc" stroke-width="2" stroke-linecap="round"/>
  <path d="M19,49 L49,19" stroke="#0066cc" stroke-width="2" stroke-linecap="round"/>
  
  <!-- Center dot with glow effect -->
  <circle cx="32" cy="34" r="4" fill="#0066cc"/>
  <circle cx="32" cy="34" r="6" fill="none" stroke="#0066cc" stroke-width="1" opacity="0.6"/>
  <circle cx="32" cy="34" r="8" fill="none" stroke="#0066cc" stroke-width="0.5" opacity="0.3"/>
  
  <!-- Stylized frost crystal elements -->
  <path d="M32,14 L28,20 M32,14 L36,20" stroke="#00a1ff" stroke-width="1.5" stroke-linecap="round"/>
  <path d="M32,54 L28,48 M32,54 L36,48" stroke="#00a1ff" stroke-width="1.5" stroke-linecap="round"/>
  <path d="M14,34 L20,30 M14,34 L20,38" stroke="#00a1ff" stroke-width="1.5" stroke-linecap="round"/>
  <path d="M54,34 L48,30 M54,34 L48,38" stroke="#00a1ff" stroke-width="1.5" stroke-linecap="round"/>
  
  <!-- Decorative dots at key points -->
  <circle cx="32" cy="14" r="1.5" fill="#00a1ff"/>
  <circle cx="32" cy="54" r="1.5" fill="#00a1ff"/>
  <circle cx="14" cy="34" r="1.5" fill="#00a1ff"/>
  <circle cx="54" cy="34" r="1.5" fill="#00a1ff"/>
  <circle cx="19" cy="19" r="1" fill="#00a1ff"/>
  <circle cx="49" cy="49" r="1" fill="#00a1ff"/>
  <circle cx="19" cy="49" r="1" fill="#00a1ff"/>
  <circle cx="49" cy="19" r="1" fill="#00a1ff"/>
</svg>
