<?xml version="1.0" encoding="UTF-8" standalone="no"?>
<svg viewBox="0 0 100 100" xmlns="http://www.w3.org/2000/svg">
  <!-- Innovative Snowflake/Cold Design -->
  <defs>
    <linearGradient id="blueGradient" x1="0%" y1="0%" x2="100%" y2="100%">
      <stop offset="0%" style="stop-color:#0066cc;stop-opacity:0.8"/>
      <stop offset="100%" style="stop-color:#00a1ff;stop-opacity:1"/>
    </linearGradient>
  </defs>
  
  <!-- Hexagonal shape instead of circle -->
  <polygon points="50,5 87.5,27.5 87.5,72.5 50,95 12.5,72.5 12.5,27.5" 
           fill="white" 
           stroke="url(#blueGradient)" 
           stroke-width="3"/>
  
  <!-- Modern snowflake design -->
  <!-- Main axes with tapered ends -->
  <path d="M50,20 L50,80" stroke="#0066cc" stroke-width="4" stroke-linecap="round"/>
  <path d="M20,50 L80,50" stroke="#0066cc" stroke-width="4" stroke-linecap="round"/>
  
  <!-- Diagonal axes with style -->
  <path d="M28,28 L72,72" stroke="#0066cc" stroke-width="3" stroke-linecap="round"/>
  <path d="M28,72 L72,28" stroke="#0066cc" stroke-width="3" stroke-linecap="round"/>
  
  <!-- Center dot with glow effect -->
  <circle cx="50" cy="50" r="6" fill="#0066cc"/>
  <circle cx="50" cy="50" r="9" fill="none" stroke="#0066cc" stroke-width="1.5" opacity="0.6"/>
  <circle cx="50" cy="50" r="12" fill="none" stroke="#0066cc" stroke-width="0.8" opacity="0.3"/>
  
  <!-- Stylized frost crystal elements -->
  <path d="M50,20 L45,28 M50,20 L55,28" stroke="#00a1ff" stroke-width="2" stroke-linecap="round"/>
  <path d="M50,80 L45,72 M50,80 L55,72" stroke="#00a1ff" stroke-width="2" stroke-linecap="round"/>
  <path d="M20,50 L28,45 M20,50 L28,55" stroke="#00a1ff" stroke-width="2" stroke-linecap="round"/>
  <path d="M80,50 L72,45 M80,50 L72,55" stroke="#00a1ff" stroke-width="2" stroke-linecap="round"/>
  
  <!-- Decorative dots at key points -->
  <circle cx="50" cy="20" r="2.5" fill="#00a1ff"/>
  <circle cx="50" cy="80" r="2.5" fill="#00a1ff"/>
  <circle cx="20" cy="50" r="2.5" fill="#00a1ff"/>
  <circle cx="80" cy="50" r="2.5" fill="#00a1ff"/>
  <circle cx="28" cy="28" r="1.5" fill="#00a1ff"/>
  <circle cx="72" cy="72" r="1.5" fill="#00a1ff"/>
  <circle cx="28" cy="72" r="1.5" fill="#00a1ff"/>
  <circle cx="72" cy="28" r="1.5" fill="#00a1ff"/>
</svg>
